<?xml version="1.0" encoding="UTF-8"?>
<svg
   version="1.2"
   viewBox="0 0 624 624"
   width="1024"
   height="1024"
   xmlns="http://www.w3.org/2000/svg">
  <g fill="#464343" transform="translate(-200,-200)">
    <path d="m 200,204 c 0,16 8,40 16,56 h 592 c 8,-16 16,-40 16,-56 z" />
    <path d="m 240,276 c -8,40 24,104 72,104 v -32 c 0,-4 4,-8 8,-8 h 88 c 4,0 8,4 8,8 v 328 l -16,48 H 624 L 608,676 V 348 c 0,-4 4,-8 8,-8 h 88 c 4,0 8,4 8,8 v 32 c 56,0 80,-64 72,-104 z m 256,8 52,72 -24,96 32,64 -32,96 20,106 -68,-106 32,-96 -32,-64 40,-96 z" />
    <path d="m 640,732 c 8,0 12,8 16,24 H 368 c 4,-16 8,-24 16,-24 z" />
    <path d="m 352,764 h 72 c 8,0 8,12 8,20 8,-8 20,-20 28,-20 h 212 l 16,56 H 336 Z" />
  </g>
  <path
     d="m 284,252 32,64 -32,96 56,96 -24,-96 32,-96 -32,-64 24,-96 -40,-64 24,64 z"
     fill="#cc0033"/>
</svg>
